<svg xmlns="http://www.w3.org/2000/svg" xmlns:xlink="http://www.w3.org/1999/xlink" viewBox="0 0 609.51 321.64"><defs><style>.cls-1,.cls-11,.cls-14,.cls-15{fill:none;}.cls-2{isolation:isolate;}.cls-3{fill:#afb3bd;}.cls-4{fill:#f5c5b3;}.cls-5{fill:#42b2fc;}.cls-6{fill:#fec4ad;}.cls-7{fill:#e8d4e5;}.cls-18,.cls-23,.cls-7{mix-blend-mode:multiply;}.cls-8{fill:#7b2b1a;}.cls-9{fill:#133a50;}.cls-10{fill:#fff;}.cls-11,.cls-15{stroke:#fff;}.cls-11,.cls-14,.cls-15{stroke-miterlimit:10;}.cls-11{stroke-width:2px;}.cls-12{fill:#4fae86;}.cls-13{fill:#319188;}.cls-14{stroke:#194459;}.cls-16{fill:#21295b;}.cls-17{fill:#ff3a46;}.cls-18{fill:#cfcfcf;}.cls-19{fill:#b3b3b3;}.cls-20{fill:#d6313b;}.cls-21{clip-path:url(#clip-path);}.cls-22,.cls-23{fill:#ffd71d;}.cls-24,.cls-26{opacity:0.7;mix-blend-mode:overlay;}.cls-24{fill:url(#radial-gradient);}.cls-25{fill:url(#linear-gradient);}.cls-26{fill:#fd0;}.cls-27{fill:url(#linear-gradient-2);}.cls-28{fill:url(#linear-gradient-3);}.cls-29{fill:#471a16;}</style><clipPath id="clip-path" transform="translate(-22.8 -34.35)"><rect class="cls-1" x="137.16" y="247.97" width="162.3" height="107.16" rx="14.22"/></clipPath><radialGradient id="radial-gradient" cx="154.3" cy="286.4" r="67.18" gradientUnits="userSpaceOnUse"><stop offset="0" stop-color="#fff"/><stop offset="1" stop-color="#fff" stop-opacity="0"/></radialGradient><linearGradient id="linear-gradient" x1="218.31" y1="247.97" x2="218.31" y2="314.87" gradientUnits="userSpaceOnUse"><stop offset="0" stop-color="#ffd71d"/><stop offset="1" stop-color="#feb200"/></linearGradient><linearGradient id="linear-gradient-2" x1="428.94" y1="251.72" x2="475.43" y2="251.72" gradientTransform="matrix(-1, 0, 0, 1, 936.53, 0)" gradientUnits="userSpaceOnUse"><stop offset="0" stop-color="#343a44"/><stop offset="0.3" stop-color="#232d3e"/><stop offset="0.64" stop-color="#182439"/><stop offset="1" stop-color="#142138"/></linearGradient><linearGradient id="linear-gradient-3" x1="440.3" y1="245.38" x2="506.09" y2="245.38" xlink:href="#linear-gradient-2"/></defs><g class="cls-2"><g id="OBJECTS"><path class="cls-3" d="M90.91,233.24C60.15,252.59,44,296.19,68.94,354.3H559c8.32-21.06,13.3-48.71,14.86-65.17,3.41-35.92-8.8-73.22-30.32-92.92-54.46-49.84-99.74,19.39-128.37-9.88-16.52-16.89-15-64.31-27.89-86.32C358.73,51.42,305,27.47,252,36.07,216.75,41.79,185,60.45,165.55,92c-26.57,43.23-7.23,74.21-19,104.09C133.51,229.43,111.47,220.31,90.91,233.24Z" transform="translate(-22.8 -34.35)"/><path class="cls-4" d="M134.5,157c-.07.28,4.48-2.54,4.48-2.54l1.92-3s1.88-1.21,3.22-1.87,3.82-4.68,3.82-4.68l-1-1.22a16.94,16.94,0,0,1-1.87,2,2.38,2.38,0,0,1-1.41,0,25.31,25.31,0,0,1,1.08-3,28.59,28.59,0,0,1,3.05-4.68l-.86-.9a26.21,26.21,0,0,0-1.88,2c-.5.66-1.45,2-1.45,2a27.1,27.1,0,0,1,1.6-3.33c.62-.91,1.28-2.14,1.28-2.14l-1-.69a22.71,22.71,0,0,0-1.77,2.51c-.6,1.08-1.71,2.87-1.71,2.87a36.66,36.66,0,0,1,1.26-3.53,12.88,12.88,0,0,0,.58-1.2l-1.18-.4a9.34,9.34,0,0,0-1.4,2.49,13.6,13.6,0,0,1-.9,2.07,14.44,14.44,0,0,1,.74-3,2.55,2.55,0,0,0,.4-1l-1-.18s-1.84,3.39-2.8,5.49-1.72,4.94-2.27,6.48a58.66,58.66,0,0,0-1.25,6.77Z" transform="translate(-22.8 -34.35)"/><path class="cls-5" d="M162.85,177.14l-23.3-4a77.67,77.67,0,0,1-.25-11.94c.41-7,1.27-8.92,1.27-8.92l-6.25-.86s-1.24,5.49-2.12,9.44c-2,8.74-3.76,16.94-2.26,18.77,2.17,2.65,21.56,8,28.19,13C162.12,195.63,161.89,186.05,162.85,177.14Z" transform="translate(-22.8 -34.35)"/><polygon class="cls-6" points="173.08 209.03 171.9 217.09 174.33 222.61 176.11 220.2 176.52 215.7 179.15 216.1 180.44 214.48 180.33 211.1 179.9 201.92 173.08 209.03"/><path class="cls-5" d="M194.25,182c-1.8-.66-7.66-.23-7.66-.23s-.55,6.25,1.83,11.08,8.28,22.43,9,24.08-1.56,26.48-1.56,26.48l8.56-1.75s4.12-19.15,4.09-24-4.59-23.09-7.82-28.89S198.6,183.57,194.25,182Z" transform="translate(-22.8 -34.35)"/><path class="cls-6" d="M180.15,164.05s-1.88,8.25-.41,10.17c.86,1.13,4.52,5.14,4.52,5.14s-12.12,6.4-15.69,6.4-2.31-7.15-2.31-7.15,3.89-3.07,4.47-4.62a35.75,35.75,0,0,0,.9-6.05Z" transform="translate(-22.8 -34.35)"/><path class="cls-4" d="M181.57,164.35s-.14-3,2.38-2.93c1.61.05,1.73,1.53.48,3.43-.53.8-.58,2.61-1.24,3.19s-1.46-.38-1.7-.88A6,6,0,0,1,181.57,164.35Z" transform="translate(-22.8 -34.35)"/><path class="cls-4" d="M168,164.35s.14-3-2.38-2.93c-1.6.05-1.73,1.53-.48,3.43.53.8.58,2.61,1.24,3.19s1.46-.38,1.7-.88A6,6,0,0,0,168,164.35Z" transform="translate(-22.8 -34.35)"/><path class="cls-4" d="M184.12,157a28.73,28.73,0,0,1-.51,3.06c-.06.35-.12.75-.19,1.21-.52,3.61-1.18,8.52-1.47,9.25-.47,1.22-3,3.18-4.27,3.9a7.36,7.36,0,0,1-5.53-.14c-1.22-.72-4-2.54-4.46-3.76-.29-.74-1-5.79-1.5-9.46-.06-.42-.12-.78-.17-1.1a26.75,26.75,0,0,1-.5-3c-.19-3,3.24-7.48,9.3-7.48C182,149.51,184.31,154,184.12,157Z" transform="translate(-22.8 -34.35)"/><path class="cls-7" d="M168.55,153.15a14.47,14.47,0,0,1,11.1.41l2.13-1.36a17.52,17.52,0,0,0-7.59-1.6C169.71,150.63,168.55,153.15,168.55,153.15Z" transform="translate(-22.8 -34.35)"/><path class="cls-8" d="M183.61,160.05c-.06.35-.12.75-.19,1.21-.52,3.61-1.18,8.52-1.47,9.25-.47,1.22-3,3.18-4.27,3.9a7.36,7.36,0,0,1-5.53-.14c-1.22-.72-4-2.54-4.46-3.76-.29-.74-1-5.79-1.5-9.46-.06-.42-.12-.78-.17-1.1l.49-.74s.89,5.23,2.26,6.86,1.62,1.7,1.62,1.7l2.8-.69.22-.06a6.54,6.54,0,0,1,3.26,0l.18,0,.2.06,2.12.61s.49-.08,1.86-1.7,2-6.86,2-6.86Z" transform="translate(-22.8 -34.35)"/><path class="cls-8" d="M184.56,155c0,.1-.51,3.67-.71,4.23-.31.87-.55,1.49-.55,1.49l-.37-.8a11.79,11.79,0,0,1-1.08-4.71l-.07-3.05,1-.9C184.8,151.6,185,152.76,184.56,155Z" transform="translate(-22.8 -34.35)"/><path class="cls-8" d="M168.68,152.35v0l-.49,3.14a11.72,11.72,0,0,1-1.47,4.14l0,.07-.55,1s-.17-.55-.39-1.34c-.17-.59-.58-3.57-.68-4,0-.13-.06-.26-.09-.38-.42-2.24,0-3.18,2-3.47Z" transform="translate(-22.8 -34.35)"/><path class="cls-8" d="M182.8,151.3l-1,.9-1.93.69a15.38,15.38,0,0,0-6.83-1.22c-3.88.3-4.41,1.41-4.47,1.48h0l-.4-.09-1.9-.42-.39-.08a11.62,11.62,0,0,1,.76-2.16c1.52-2.3,5.68-3.79,9.45-3.41l.38,0a9.09,9.09,0,0,1,5.14,2.13Z" transform="translate(-22.8 -34.35)"/><path class="cls-9" d="M192.25,347.19v7.56H177.72s.55-2.74,7.44-4l1-3.56Z" transform="translate(-22.8 -34.35)"/><path class="cls-9" d="M170.15,347.19v7.56H155.62s.54-2.74,7.44-4l1-3.56Z" transform="translate(-22.8 -34.35)"/><path class="cls-9" d="M189.81,234.64s2,24.35,2.1,44.21,1.26,70.07,1.26,70.07h-8s-8.27-48.22-11.28-61-10.82-53.06-10.82-53.06Z" transform="translate(-22.8 -34.35)"/><path class="cls-9" d="M172.37,260.79s-1.5,30.26-1.81,36.22,0,51.88,0,51.88-7.51.2-7.51,0-7.09-48.9-8-63.59-.38-32.08-1.6-34.11,3.29-16.46,3.29-16.46l10.63,2.84Z" transform="translate(-22.8 -34.35)"/><path class="cls-10" d="M169.1,175.87s-3.34,7.56,1.68,8.39c8,1.33,10.4-8.87,10.4-8.87l8.79,4.53s-.16,54.72,3.29,71.42c2,9.7-31.37,5.08-36.27-3.53-4.24-7.45,8-69.37,8-69.37Z" transform="translate(-22.8 -34.35)"/><path class="cls-5" d="M183.25,176.34c-.25.33-12,34.84-8,67.32.93,7.57,14.74,1.3,18,1.3,0,0,1.57-24.23,2-33.25s-3.91-12-3.53-16.39,5.18-12.27,5.18-12.27Z" transform="translate(-22.8 -34.35)"/><path class="cls-5" d="M163.54,247.09c1.34-22.57,1.9-69.83,1.9-69.83l-8-.6s-4,39.64-4,44.15c0,1.79.53,23.56-.68,27.63C155.44,248.85,163.37,249.81,163.54,247.09Z" transform="translate(-22.8 -34.35)"/><path class="cls-11" d="M250.3,164c-6.25,2.15-12.68,4.39-17.65,8.76s-8.16,11.42-6.07,17.7,10.81,9.92,15.85,5.64c1.81-1.54,2.92-4.18,1.95-6.34-1.92-4.29-8.62-2.28-11.76,1.21-3.72,4.15-6.09,9.81-5.17,15.31s5.72,10.43,11.29,10.42,13.51-8.41,8.74-11.29c-6-3.65-13.83,5.06-16.81,11.47s-1.12,15.11,5,18.71,20.37-.95,16.62-6.95c-3.95-6.35-15.63,2.8-17.19,10.11s4.18,15.33,11.6,16.23,20.28-7.55,15.14-13c-7.42-7.85-19.8,12.14-16.23,22.33s18.34,14.26,26.62,7.32c1.56-1.3,3-3.16,2.67-5.16-.48-3.34-5.05-4.28-8.25-3.21-8.34,2.79-12.11,14.46-7,21.6s17.41,7.27,22.7.24a6,6,0,0,0,1.45-4.76c-.52-2.33-3.29-3.65-5.64-3.21a9.17,9.17,0,0,0-5.59,4.2c-4.76,7.05-3.15,17.64,3.48,23s17.33,4.59,23.17-1.59c1.53-1.61,2.79-3.76,2.39-5.94-.47-2.52-3.16-4.21-5.72-4.15a9.93,9.93,0,0,0-6.69,3.38c-7.47,7.75-4.28,22.76,5.7,26.81s29.77-7.1,22.76-15.27c-4.68-5.46-13.91,6.35-12.73,13.44s9.34,11.93,16.3,10.1,16.11-11.8,10.74-16.58c-3.8-3.38-10,3.77-11.13,8.72a11.7,11.7,0,0,0,6,12.79c4.91,2.42,10.93,1,15.66-1.81s8.65-6.72,13.21-9.76a41.22,41.22,0,0,1,31.54-5.91" transform="translate(-22.8 -34.35)"/><path class="cls-12" d="M565.86,196.63c-10.13-6.47-100.42,69.65-97.11,129.78,0,0,17.58-23.73,32.9-35.3s16.82-23.68,16.79-35.67,22.88-7,25.46-20.35C548.47,211.55,575,202.45,565.86,196.63Z" transform="translate(-22.8 -34.35)"/><path class="cls-13" d="M571.79,252.65c-14.58,8.84-10.29,20.62-18.89,27.5-6.25,5-16.69,2.38-21.89,9.19-5.87,7.68.8,18.25,1.29,27.5.68,12.79-10.72,22.37-22.3,26.25-13.45,4.51-30.86,3.1-38.23-10.28-8.69-15.78-2.18-39.59,13.07-47,3.7-1.8,8.4-2.29,11.43-5.94,5.11-6.15,1.83-15,4.19-22.83,2.31-7.63,9.85-13,16.8-15.38s14-2.86,20.82-5.62c9.25-3.75,17.35-12,25-17.57,6.87-5,31-14.29,34.91,2C601.61,235.3,584.05,245.23,571.79,252.65Z" transform="translate(-22.8 -34.35)"/><path class="cls-14" d="M573.3,228.92s-59.62,30-107.19,126.65" transform="translate(-22.8 -34.35)"/><path class="cls-15" d="M609.3,274.08s-76.66-.86-140.36,72.22" transform="translate(-22.8 -34.35)"/><path class="cls-12" d="M571.29,308.26c-7.31,2.93-9.29,15.25-17.16,16.81-5.72,1.14-11.83-3.93-17.42-1.3-6.3,3-5.19,11.85-7.77,17.89-3.56,8.33-14.13,10.7-23,9.39-10.35-1.53-21.46-8.1-22.16-19-.81-12.86,11-25.85,23.43-25.59,3,.07,6.3,1.29,9.45,0,5.32-2.24,5.93-8.93,10-13.13s10.62-5,16-4.28,10.21,2.76,15.58,3.22c7.32.63,15.29-2,22.15-3,6.12-.91,31.11-.43,22.54,12.65C596.89,311,581,304.37,571.29,308.26Z" transform="translate(-22.8 -34.35)"/><path class="cls-14" d="M587.05,296.2s-53.25,4.53-115.17,50.41" transform="translate(-22.8 -34.35)"/><path class="cls-13" d="M413.53,353.45s12.12-21.22,14.09-23.4c12.47-13.8,29-13.95,45.84-10.47,4.87,1,17.77,7.78,22.44,6.85,3.65-.73,8-14.58,19.69-13.86S528,327.16,528,327.16s7.32-16.1,19-14.61,11.66,12.35,2.91,20.4c0,0,18.59-5.57,36.64,3.06s9.42,20,9.42,20Z" transform="translate(-22.8 -34.35)"/><path class="cls-12" d="M89.25,196.63c10.13-6.47,100.42,69.65,97.11,129.78,0,0-17.58-23.73-32.9-35.3s-16.81-23.68-16.78-35.67-22.89-7-25.47-20.35C106.65,211.55,80.13,202.45,89.25,196.63Z" transform="translate(-22.8 -34.35)"/><path class="cls-13" d="M83.32,252.65c14.58,8.84,10.29,20.62,18.89,27.5,6.26,5,16.69,2.38,21.9,9.19,5.86,7.68-.81,18.25-1.3,27.5-.68,12.79,10.72,22.37,22.3,26.25,13.46,4.51,30.87,3.1,38.23-10.28,8.69-15.78,2.19-39.59-13.06-47-3.71-1.8-8.41-2.29-11.44-5.94-5.11-6.15-1.83-15-4.19-22.83-2.31-7.63-9.85-13-16.8-15.38s-14-2.86-20.82-5.62c-9.25-3.75-17.35-12-25-17.57-6.87-5-31-14.29-34.9,2C53.5,235.3,71.06,245.23,83.32,252.65Z" transform="translate(-22.8 -34.35)"/><path class="cls-14" d="M81.81,228.92s59.63,30,107.2,126.65" transform="translate(-22.8 -34.35)"/><path class="cls-15" d="M45.81,274.08s76.66-.86,140.36,72.22" transform="translate(-22.8 -34.35)"/><path class="cls-12" d="M83.82,308.26c7.31,2.93,9.29,15.25,17.16,16.81,5.72,1.14,11.83-3.93,17.42-1.3,6.3,3,5.19,11.85,7.77,17.89,3.56,8.33,14.14,10.7,23,9.39,10.34-1.53,21.46-8.1,22.15-19,.81-12.86-11-25.85-23.43-25.59-3,.07-6.3,1.29-9.45,0-5.32-2.24-5.92-8.93-10-13.13s-10.62-5-16-4.28-10.21,2.76-15.58,3.22c-7.32.63-15.29-2-22.15-3-6.11-.91-31.11-.43-22.54,12.65C58.22,311,74.09,304.37,83.82,308.26Z" transform="translate(-22.8 -34.35)"/><path class="cls-14" d="M68.06,296.2s53.25,4.53,115.18,50.41" transform="translate(-22.8 -34.35)"/><path class="cls-13" d="M241.58,353.45s-12.12-21.22-14.09-23.4c-12.47-13.8-29-13.95-45.84-10.47-4.87,1-17.76,7.78-22.44,6.85-3.65-.73-8-14.58-19.69-13.86s-12.36,14.59-12.36,14.59-7.32-16.1-19-14.61S96.51,324.9,105.26,333c0,0-18.59-5.57-36.63,3.06s-9.43,20-9.43,20Z" transform="translate(-22.8 -34.35)"/><path class="cls-16" d="M372.18,355.3H353.32a4,4,0,0,1-4-3.67l-1.23-14.89h29.3l-1.23,14.89A4,4,0,0,1,372.18,355.3Z" transform="translate(-22.8 -34.35)"/><path class="cls-16" d="M483.53,355.3H464.67a4,4,0,0,1-4-3.67l-1.24-14.89h29.3l-1.23,14.89A4,4,0,0,1,483.53,355.3Z" transform="translate(-22.8 -34.35)"/><path class="cls-17" d="M486.8,317.2H350.05l9.67-70.5a11.11,11.11,0,0,1,11-9.59h95.4a11.1,11.1,0,0,1,11,9.59Z" transform="translate(-22.8 -34.35)"/><path class="cls-17" d="M468.34,303.53H368.51l7.09-70.83a10.3,10.3,0,0,1,10.25-9.27H451a10.29,10.29,0,0,1,10.25,9.27Z" transform="translate(-22.8 -34.35)"/><polygon class="cls-18" points="329.44 266.85 327.25 282.86 464 282.86 461.8 266.85 329.44 266.85"/><polygon class="cls-17" points="478.8 310.21 312.45 310.21 315.53 274.07 475.72 274.07 478.8 310.21"/><circle class="cls-18" cx="418.43" cy="267.5" r="30.43" transform="translate(-100.99 237.27) rotate(-33.07)"/><circle class="cls-10" cx="418.43" cy="267.5" r="26.32" transform="translate(-28.94 -24.49) rotate(-1.34)"/><path class="cls-19" d="M425.78,289.15a3.45,3.45,0,0,1-2.42-1,2.72,2.72,0,0,1-.42-.53,3.28,3.28,0,0,1-.32-.58,4.75,4.75,0,0,1-.2-.64,3.81,3.81,0,0,1-.07-.67,3.44,3.44,0,0,1,4.09-3.35,3.65,3.65,0,0,1,.64.2,3,3,0,0,1,.59.31,3.13,3.13,0,0,1,.52.43,3.41,3.41,0,0,1,1,2.41,3.81,3.81,0,0,1-.07.67,4.75,4.75,0,0,1-.2.64,3.52,3.52,0,0,1-.74,1.11,3.08,3.08,0,0,1-.52.42,2.55,2.55,0,0,1-.59.31,3.39,3.39,0,0,1-1.3.27Z" transform="translate(-22.8 -34.35)"/><path class="cls-19" d="M415.19,290.35h0a3.43,3.43,0,0,1-2.9-3.87h0a3.42,3.42,0,0,1,3.87-2.9h0a3.44,3.44,0,0,1,2.9,3.87h0a3.43,3.43,0,0,1-3.39,2.94h0A2.67,2.67,0,0,1,415.19,290.35Zm-11-4.67h0a3.43,3.43,0,0,1-.59-4.8h0a3.42,3.42,0,0,1,4.8-.59h0a3.43,3.43,0,0,1,.58,4.8h0a3.41,3.41,0,0,1-2.69,1.31h0A3.38,3.38,0,0,1,404.21,285.68ZM397,276.13a3.41,3.41,0,0,1,1.89-4.44h0a3.42,3.42,0,0,1,4.45,1.89h0a3.44,3.44,0,0,1-1.89,4.45h0a3.58,3.58,0,0,1-1.28.24h0A3.4,3.4,0,0,1,397,276.13Zm1.45-8a3.43,3.43,0,0,1-2.91-3.86h0a3.41,3.41,0,0,1,3.87-2.9h0a3.42,3.42,0,0,1,2.91,3.85h0a3.43,3.43,0,0,1-3.39,2.94h0A3.87,3.87,0,0,1,398.48,268.15Zm2.35-10a3.42,3.42,0,0,1-.59-4.8h0a3.41,3.41,0,0,1,4.79-.59h0a3.4,3.4,0,0,1,.59,4.79h0a3.37,3.37,0,0,1-2.69,1.32h0A3.47,3.47,0,0,1,400.83,258.1Zm27.59-3.4a3.4,3.4,0,0,1-.6-4.79h0a3.41,3.41,0,0,1,4.79-.61h0a3.42,3.42,0,0,1,.6,4.8h0a3.42,3.42,0,0,1-2.7,1.32h0A3.4,3.4,0,0,1,428.42,254.7Zm-20.53-4.14a3.41,3.41,0,0,1,1.88-4.44h0a3.42,3.42,0,0,1,4.45,1.88h0a3.41,3.41,0,0,1-1.89,4.45h0a3.35,3.35,0,0,1-1.28.25h0A3.4,3.4,0,0,1,407.89,250.56Zm12.78.86a3.41,3.41,0,0,1-2.9-3.87h0a3.39,3.39,0,0,1,3.85-2.89h0a3.39,3.39,0,0,1,2.91,3.85h0a3.42,3.42,0,0,1-3.38,2.94h0A3.87,3.87,0,0,1,420.67,251.42Z" transform="translate(-22.8 -34.35)"/><path class="cls-19" d="M436.65,263.57a3.7,3.7,0,0,1-.66-.07,2.78,2.78,0,0,1-.64-.19,3.42,3.42,0,0,1-1.12-.74,3.47,3.47,0,0,1-1-2.41,3.14,3.14,0,0,1,.07-.68,2.85,2.85,0,0,1,.19-.63,3.16,3.16,0,0,1,.73-1.11,3,3,0,0,1,.53-.42,3.08,3.08,0,0,1,.59-.33,4.3,4.3,0,0,1,.64-.18,3.42,3.42,0,0,1,3.08.93,2.92,2.92,0,0,1,.42.51,3.46,3.46,0,0,1,.32.6,3.51,3.51,0,0,1,.19.63,3.14,3.14,0,0,1,.07.68,3.41,3.41,0,0,1-3.42,3.41Z" transform="translate(-22.8 -34.35)"/><path class="cls-20" d="M379.18,156.65a14.61,14.61,0,0,1,2.94-15.27s24.74,16,52.4,11.51c0,0,3,8.35-5.47,16.07C429.05,169,399.45,174.58,379.18,156.65Z" transform="translate(-22.8 -34.35)"/><path class="cls-17" d="M421.55,121.15C403.74,106.13,370,104,327.3,110.9c-36.71,5.91-74.11,19.78-86.59,39.37-5.69,8.92-1.83,33.7-1.83,33.7,33.83,2.11,46.22-27,46.22-27s-2.26-8.25,5.31-11.89C316.93,132.35,358,128,373.33,131.76a11.33,11.33,0,0,1,8.79,9.62s20.89,23.72,52.34,11.1C434.46,152.48,429.64,128,421.55,121.15Z" transform="translate(-22.8 -34.35)"/><path class="cls-20" d="M292,170.29a14.59,14.59,0,0,0-7.58-13.57s-18.46,23-46.14,27.38c0,0-.26,8.87,10.23,13.54C248.52,197.64,278.4,193.68,292,170.29Z" transform="translate(-22.8 -34.35)"/><g class="cls-21"><rect class="cls-22" x="114.36" y="213.62" width="162.3" height="107.16" rx="14.22"/><path class="cls-23" d="M299.46,262.19A14.22,14.22,0,0,0,285.24,248H151.38a14.22,14.22,0,0,0-14.22,14.22l73.6,59.66a11.85,11.85,0,0,0,14.92,0Z" transform="translate(-22.8 -34.35)"/><path class="cls-24" d="M146.63,344.07V265.35a14.22,14.22,0,0,1,14.22-14.22H294.08a14.07,14.07,0,0,0-8.84-3.16H151.38a14.22,14.22,0,0,0-14.22,14.22v78.72a14.22,14.22,0,0,0,14.22,14.22H152A14.15,14.15,0,0,1,146.63,344.07Z" transform="translate(-22.8 -34.35)"/><path class="cls-25" d="M209.34,311.48,137.16,248h162.3l-72.18,63.51A13.58,13.58,0,0,1,209.34,311.48Z" transform="translate(-22.8 -34.35)"/><path class="cls-26" d="M209.34,311.48,137.16,248h162.3l-72.18,63.51A13.58,13.58,0,0,1,209.34,311.48Z" transform="translate(-22.8 -34.35)"/></g><path class="cls-6" d="M348,183.14s4.62-13.33,4.94-14.8c1.92-8.66,2.44-27.44,2.32-31.43s-.5-7.5-.57-8-2.56-3.2-2.57-3.16a6.94,6.94,0,0,1-.77.08l0,.5-1.07-.92-.89-.05-.1.41-1.27-.61-1.23,0s.79,2.54,1.25,4.08,0,1.67,0,1.67a3.4,3.4,0,0,1-1.38.25,9.44,9.44,0,0,0-1.74-.07s3.73,4.85,3.9,5.3a8.82,8.82,0,0,1,1.5,7A178.48,178.48,0,0,1,345,162.76c.11-.28-5,14.38-5,14.38Z" transform="translate(-22.8 -34.35)"/><path class="cls-5" d="M345.55,200.79c1.43-11.22,7.17-24.32,7.17-24.32s-8.77-1.74-11-4.86c0,0-3,7.38-4.76,11-1.93,4.07-4.63,8.49-1.24,10.91S345.05,204.69,345.55,200.79Z" transform="translate(-22.8 -34.35)"/><path class="cls-9" d="M311.92,348v7.21h13.86s-.52-2.61-7.09-3.82l-1-3.39Z" transform="translate(-22.8 -34.35)"/><path class="cls-9" d="M333,348v7.21h13.86s-.52-2.61-7.09-3.82l-1-3.39Z" transform="translate(-22.8 -34.35)"/><path class="cls-9" d="M314.25,240.67s-1.94,20.16-2,39.1-1.19,69.92-1.19,69.92h7.65s7.88-49.08,10.75-61.26,10.33-47.53,10.33-47.53Z" transform="translate(-22.8 -34.35)"/><path class="cls-6" d="M326,173.83s-.49,3.86-.9,5.82a16.47,16.47,0,0,1-1,3.59c-.67,1.33-4.74,5.38-4.74,5.38s12.69,6.7,16.42,6.7,2.42-7.48,2.42-7.48-4.07-3.22-4.67-4.84a36.37,36.37,0,0,1-.95-6.33Z" transform="translate(-22.8 -34.35)"/><path class="cls-9" d="M330.89,262.54s1.43,31.95,1.72,37.63,0,49.49,0,49.49,7.17.19,7.17,0,6.75-49.73,7.63-63.73.36-30.61,1.53-32.55-3.14-12.62-3.14-12.62l-10.15-.37Z" transform="translate(-22.8 -34.35)"/><path class="cls-5" d="M321.92,184.85s-10.71-4.3-12.48-.77c-1.34,2.66-.19,19.8.4,24.59.52,4.17,3.41,39.21,3.41,39.21s4,6.2,23.26,3.73c7.43-1,11.08-4.57,11.08-4.57s-2.08-41.82-2.65-46a91.13,91.13,0,0,0-2.56-10.74l-5.73-3.78s1.82,4-3.35,5.19C322.87,194,321.92,184.85,321.92,184.85Z" transform="translate(-22.8 -34.35)"/><path class="cls-6" d="M336.15,159.25c1.21.49,3.34,1.58,3.57,2.6a39.64,39.64,0,0,1,1.21,5.73c.11,1.78.37,5.14.37,7.24s-1.27,6.34-1.75,6.79a10.41,10.41,0,0,1-5.19.84c-1.2-.34-8.18-3.95-8.62-8.38,0,0-1.24.65-3.52-3-.6-1,1.46-8.12,1.73-9.4.67-3.1,8.31-.66,10-1.15A3.76,3.76,0,0,0,336.15,159.25Z" transform="translate(-22.8 -34.35)"/><path class="cls-9" d="M339.72,161.85s-5.35,3.35-7.44,3.52-5.16,3-5.1,3.94a2,2,0,0,1-.89,1.5s-1.3-2.07-2.36-1.86c-2.11.43-.87,3,.27,3.61a17.8,17.8,0,0,0,2.26.92,11,11,0,0,1,.1,2.23,10.24,10.24,0,0,1-.89,2.62s-2.47-5.21-4.69-7.15c-5.27-4.62-1.45-13.2,3.74-14.81,2.09-.65,7.85-1.08,10.65.17A7.64,7.64,0,0,1,339.72,161.85Z" transform="translate(-22.8 -34.35)"/><path class="cls-16" d="M328.5,169.18c.08.21.63.25.73.29s.12.13,1.09,1.61c.71,1.09,1.9,1.44,4.13.69,1.7-.57,1.47-2,1.59-2.73s.26-.81.53-.86.42,0,.77.64.52,2.19,2.29,1.93c1.23-.19,1.55-.53,1.72-1.49a10.5,10.5,0,0,0,.14-2.35c-.05-.64-.06-1-.39-1.07a6.24,6.24,0,0,0-1.46.16,6.12,6.12,0,0,0-2.4.62c-.57.42-.51.68-.81.73s-.36-.2-1.05-.4a20.17,20.17,0,0,0-4.56.49c-1.06.18-2.52.58-2.49,1A3.17,3.17,0,0,0,328.5,169.18Zm9.16-1.58c.06-.52.1-.46,1.41-.76s1.45-.24,1.71,0a2.75,2.75,0,0,1,.33,2.11,1.47,1.47,0,0,1-1.27,1.52c-1.15.2-1.42-.37-1.75-1.17A4.89,4.89,0,0,1,337.66,167.6Zm-7.63.85c.17-.28,2-.52,3.28-.69s1.78-.22,2,.25a5.13,5.13,0,0,1,.17,1.72c0,.86-.21,1.62-2.29,2a2.23,2.23,0,0,1-2.78-1.24A2.41,2.41,0,0,1,330,168.45Zm-4.45,1.33,2.92-.6,1-1.45s-1.12.16-3,.58a5.54,5.54,0,0,0-1.76.83A3.09,3.09,0,0,1,325.58,169.78Z" transform="translate(-22.8 -34.35)"/><path class="cls-6" d="M302.49,184.37s-2.54-16.06-2.56-17.56c-.15-8.87,4.35-20.78,5.26-24.67s1.53-3.28,1.71-3.79,6.63-1.49,6.63-1.49a16.77,16.77,0,0,1,2.14-.77c.4,0,2.1-.55,2.1-.55l-1,1.78s-4,3.06-4.27,3.46a8.82,8.82,0,0,0-2.88,6.58c-.16,7.94-.13,16.53-.13,16.53-.06-.29,3.79,16.44,3.79,16.44Z" transform="translate(-22.8 -34.35)"/><path class="cls-5" d="M309.84,208.67c-2.72-7.74-9-28.51-9-28.51s9.27-2.33,11.89-5.17l4.43,13.14c1.43,4.26,3.6,9-.05,11S311.15,212.38,309.84,208.67Z" transform="translate(-22.8 -34.35)"/><path class="cls-27" d="M489.14,221.63c2.4,2.24,4.11,1.49,7.72,13.87,2.31,7.9,10.73,47.77,10.73,47.77l-5,2.18c-6.8-19.06-6.8-19-14.74-34.5a68.89,68.89,0,0,1-5.47-14.9l-14.69-.88c-9.19-3.77-6-17.18-6-17.18S486.73,219.39,489.14,221.63Z" transform="translate(-22.8 -34.35)"/><path class="cls-28" d="M433.47,209.78l13.26-8.49,12.83,10,16,5.16-.08.05c6.42,2.23,13.76,5.48,16,7.58,2.41,2.24,7.15,5.42,3.33,17.73-2.45,7.86-13.1,47.7-13.1,47.7l-5.4-1s1.92-23.09,3.84-40.35c.93-8.38,1.24-10.71,1.24-10.71s-35.67,3.89-47.16-2.18C426.17,231,433.47,216.22,433.47,209.78Z" transform="translate(-22.8 -34.35)"/><path class="cls-9" d="M482.06,286.58s-.15,1.45-2.48,2.11a4,4,0,0,1-3.9-1.27l-.52,4.74,7.42,5.23h6.17l-3.34-3.7Z" transform="translate(-22.8 -34.35)"/><path class="cls-9" d="M506.79,280a2.54,2.54,0,0,1-.92,3.36,3.94,3.94,0,0,1-4.1,0l1,4.67,17.52-5.48Z" transform="translate(-22.8 -34.35)"/><path class="cls-6" d="M486.63,162a37.28,37.28,0,0,1-2.92-3.47l-.68-3.05s-1.18-1.58-2.09-2.53-1.72-5-1.72-5l1.18-.72a14.44,14.44,0,0,0,.94,2.23,2.07,2.07,0,0,0,1.15.47,22.79,22.79,0,0,0,0-2.84,25,25,0,0,0-1.09-4.79l1-.49a22.53,22.53,0,0,1,.95,2.2c.21.7.57,2.13.57,2.13a23.72,23.72,0,0,0-.3-3.25c-.23-.94-.4-2.16-.4-2.16l1-.26a18.53,18.53,0,0,1,.69,2.62c.17,1.07.54,2.89.54,2.89a32.36,32.36,0,0,0,0-3.31,9.39,9.39,0,0,1-.11-1.16l1.1,0a8.29,8.29,0,0,1,.39,2.49,11.6,11.6,0,0,0,.11,2,12.77,12.77,0,0,0,.31-2.7,2.19,2.19,0,0,1,0-.92l.84.15s.48,3.36.64,5.4-.09,4.61-.11,6-.06,2.56-.06,2.56Z" transform="translate(-22.8 -34.35)"/><path class="cls-6" d="M464.16,165.94a133.72,133.72,0,0,0,13.67,9.77s2.55-6.38,3.76-10.9c1.45-5.4,1.87-7.89,1.87-7.89l5.16-.42S487,170.31,485,179.67c-2,9.1-4.46,7.47-6.64,7s-22.71-11.48-22.71-11.48l2.2-11.72S459.27,161.93,464.16,165.94Z" transform="translate(-22.8 -34.35)"/><path class="cls-29" d="M442.47,132.79c1.09-.62,6.4-1.06,9.72,1,6.35,3.91,3.3,14.63,2.9,17.1s1.88,6.91,1.84,9.85-.74,4-2.94,6.87a5.51,5.51,0,0,0-.82,2.28,21.07,21.07,0,0,1-2.95-8.71c-.52-5.07-1.6-3.88-4.13-9.45s-2.65-14-2.65-14Z" transform="translate(-22.8 -34.35)"/><path class="cls-29" d="M447.75,136.42l-5.28-3.63a7.72,7.72,0,0,0-7.13,3.41c-2.62,4-3.54,9.83-4.13,14.19s-2.12,12.58-2,15.83,4.06,3.7,4.06,3.7l13.27-5.74a39.32,39.32,0,0,1-.12-14.41A72.3,72.3,0,0,0,447.75,136.42Z" transform="translate(-22.8 -34.35)"/><path class="cls-6" d="M452.17,137.53c.27,1.65,1.55,6.5,1.68,9.62s-.24,8.23-2.3,9.65-5.93.28-8.77-.89-3.51-3.16-4.06-5-.36-6.68.28-10.15a6.2,6.2,0,0,1,5.41-5.36C447,134.94,452.17,137.53,452.17,137.53Z" transform="translate(-22.8 -34.35)"/><path class="cls-6" d="M440.6,149.11s.72,7.73-.91,11.37c-1.12,2.51-5.67,3.58-5.67,3.58a25.62,25.62,0,0,0,4.4,13.67c4.56,6.71,18.82,9.19,18.82,9.19A61.86,61.86,0,0,0,461.5,175,13.86,13.86,0,0,0,459,163.9s-3.86-1.26-5.71-2c-4.49-1.69-4-8.83-4-8.83Z" transform="translate(-22.8 -34.35)"/><path class="cls-5" d="M449.26,167s-9.22-2.34-12-4.14l-9.15,5.44s-5.37,5.12,3.8,18.6c0,0,3.48,12.27-2.17,33.9,0,0,1.53,5.57,10.09,2.6,7.38-2.55,7.54-4.55,14-6.18,9.54-2.42,12.05-3.91,12.05-3.91-5-7.53-4.12-19.29-4.12-19.29s5.68-5.43,3.25-11c-3.52-8-4.69-19.37-4.69-19.37l-4.9-1.24a36.77,36.77,0,0,1-3.91,4.16A2.09,2.09,0,0,1,449.26,167Z" transform="translate(-22.8 -34.35)"/><path class="cls-10" d="M453.28,161.94s-1.12,4.18-4,5.09c0,0,1.14,5.73,3.85,4.73,3.8-1.39,2.32-9.31,2.32-9.31Z" transform="translate(-22.8 -34.35)"/><path class="cls-10" d="M436.17,162.19s1.8,8.74,6.63,9.45,6.46-4.61,6.46-4.61S439,164,438,160.89Z" transform="translate(-22.8 -34.35)"/><path class="cls-29" d="M444.68,135.34c-.89.06-1.55,4.27-1.64,6.62s-3.61,4.21-2.06,9.38,1.35,10.17,3.43,15.84-.51,7.74-1.64,9.69a75.53,75.53,0,0,1-6-7.33,5.89,5.89,0,0,0-6.38-2.85s6.81-13.22,6.58-16.78-.86-9,2-12.26S444.68,135.34,444.68,135.34Z" transform="translate(-22.8 -34.35)"/><path class="cls-6" d="M441.1,145.89s-1.89-2.07-3.14-1.75-1.33,2.19-.38,3.72,4.47,2.4,4.47,2.4Z" transform="translate(-22.8 -34.35)"/><path class="cls-29" d="M445.4,141.86a25.07,25.07,0,0,0,5.37-.39c3.43-.38,4.88.5,4.88.5l-1.3-5.7s-4-2.23-6.84-2.21c-3.61,0-6.77,1.41-5,2.58S445.4,141.86,445.4,141.86Z" transform="translate(-22.8 -34.35)"/><path class="cls-6" d="M435.89,174.72c-.62,7.15-2.72,27.55-2.72,27.55,6.51,5.7,15.73,15.17,15.73,15.17s-2.62,5.17-3.75,4.3c-9-7-19.23-11.17-20-16.05-1.2-8-1.62-28.2,1.34-34.77C428.8,165.86,436.54,167.13,435.89,174.72Z" transform="translate(-22.8 -34.35)"/><path class="cls-6" d="M452.85,218.07c2.73,1,4.44,2,4.28,3.05-.11.7-2.44-.58-3.83-.54a7.71,7.71,0,0,0,3.31,3.25c1.81.89,2.81,2.12,1.85,3.16s-2.74,2.5-3.9,2-5.28-3.41-6.83-4.2-2.17-2.75-3-3.28,1.46-4.64,1.46-4.64c.43.12,2.68.6,2.68.6a15,15,0,0,0,2.23.19A5.35,5.35,0,0,1,452.85,218.07Z" transform="translate(-22.8 -34.35)"/><line class="cls-14" y1="320.42" x2="609.51" y2="320.42"/></g></g></svg>