<svg id="Objects" xmlns="http://www.w3.org/2000/svg" viewBox="0 0 472.84 409.98"><defs><style>.cls-1{fill:#5ebcfc;}.cls-2{fill:#1e7ca5;}.cls-17,.cls-3{fill:#07578e;}.cls-4,.cls-9{fill:#f7991d;}.cls-5{fill:#2fa7d1;}.cls-6{fill:#86d5ea;}.cls-7{fill:#052335;}.cls-8{fill:#031d30;}.cls-10,.cls-11,.cls-9{fill-rule:evenodd;}.cls-10{fill:#ea791c;}.cls-11,.cls-12{fill:#002642;}.cls-13{fill:#2a92e8;}.cls-14{fill:#fff;}.cls-15{fill:#cff0f7;}.cls-16{fill:#cae1ea;}.cls-17{stroke:#07578e;stroke-miterlimit:10;}</style></defs><path class="cls-1" d="M92.71,61.87a13,13,0,0,0,.15-2,13.36,13.36,0,0,0-19.33-12A17.7,17.7,0,0,0,39.9,55.65c0,.28,0,.55,0,.82l-.9,0A13.3,13.3,0,0,0,38.8,83H92.34a10.59,10.59,0,0,0,.37-21.17Z" transform="translate(-13.58 -37.95)"/><path class="cls-1" d="M295.64,133.87a14.45,14.45,0,0,0,.15-2,13.36,13.36,0,0,0-19.33-12,17.71,17.71,0,0,0-33.64,7.73c0,.28,0,.55,0,.82-.29,0-.59,0-.89,0a13.3,13.3,0,0,0-.22,26.59h53.53a10.59,10.59,0,0,0,.38-21.17Z" transform="translate(-13.58 -37.95)"/><path class="cls-1" d="M466.4,93.08a13,13,0,0,0,.15-2,13.36,13.36,0,0,0-19.33-12,17.7,17.7,0,0,0-33.63,7.73c0,.28,0,.55,0,.82q-.45,0-.9,0a13.3,13.3,0,0,0-.22,26.59H466a10.59,10.59,0,0,0,.37-21.17Z" transform="translate(-13.58 -37.95)"/><path class="cls-1" d="M448,231a13.13,13.13,0,0,0,.15-2,13.37,13.37,0,0,0-19.33-12,17.7,17.7,0,0,0-33.63,7.74c0,.27,0,.55,0,.82-.29,0-.59,0-.89,0a13.3,13.3,0,0,0-.23,26.59h53.54A10.58,10.58,0,0,0,448,231Z" transform="translate(-13.58 -37.95)"/><path class="cls-1" d="M120,182a13,13,0,0,0,.15-2,13.37,13.37,0,0,0-19.33-12,17.7,17.7,0,0,0-33.63,7.73c0,.28,0,.55,0,.83-.3,0-.6,0-.9,0a13.3,13.3,0,0,0-.22,26.59h53.54A10.59,10.59,0,0,0,120,182Z" transform="translate(-13.58 -37.95)"/><rect class="cls-2" x="32" y="132.22" width="100.53" height="133.66"/><rect class="cls-3" x="32" y="132.22" width="100.53" height="11.83"/><rect class="cls-4" x="38.89" y="152.4" width="41.18" height="2.72"/><rect class="cls-5" x="38.89" y="158.46" width="15.53" height="2.72"/><rect class="cls-6" x="58.21" y="158.46" width="24.36" height="2.72"/><rect class="cls-6" x="68.41" y="164.51" width="23.06" height="2.72"/><rect class="cls-4" x="86.48" y="158.46" width="11.31" height="2.72"/><rect class="cls-6" x="101.48" y="158.46" width="15.53" height="2.72"/><rect class="cls-5" x="38.89" y="164.51" width="26.66" height="2.72"/><rect class="cls-5" x="38.89" y="220.38" width="15.53" height="2.72"/><rect class="cls-6" x="58.21" y="220.38" width="24.36" height="2.72"/><rect class="cls-6" x="68.41" y="226.44" width="9.86" height="2.72"/><rect class="cls-6" x="86.48" y="220.38" width="11.31" height="2.72"/><rect class="cls-4" x="38.89" y="226.44" width="26.66" height="2.72"/><rect class="cls-4" x="38.89" y="253.67" width="15.53" height="2.72"/><rect class="cls-6" x="58.21" y="253.67" width="24.36" height="2.72"/><rect class="cls-5" x="47.07" y="174.77" width="15.53" height="2.72"/><rect class="cls-4" x="66.4" y="174.77" width="14.68" height="2.72"/><rect class="cls-6" x="76.6" y="180.83" width="13.03" height="2.72"/><rect class="cls-4" x="93.04" y="180.83" width="21.52" height="2.72"/><rect class="cls-6" x="83.91" y="174.77" width="22.07" height="2.72"/><rect class="cls-5" x="47.07" y="186.72" width="15.53" height="2.72"/><rect class="cls-6" x="66.4" y="186.72" width="14.68" height="2.72"/><rect class="cls-6" x="83.91" y="186.72" width="22.07" height="2.72"/><rect class="cls-6" x="109.67" y="174.77" width="15.53" height="2.72"/><rect class="cls-5" x="47.07" y="180.83" width="26.66" height="2.72"/><rect class="cls-5" x="47.07" y="234.23" width="15.53" height="2.72"/><rect class="cls-6" x="66.4" y="234.23" width="17.51" height="2.72"/><rect class="cls-6" x="66.4" y="240.28" width="23.23" height="2.72"/><rect class="cls-6" x="93.04" y="240.28" width="9.82" height="2.72"/><rect class="cls-4" x="87.71" y="234.23" width="29.01" height="2.72"/><rect class="cls-5" x="47.07" y="246.17" width="15.53" height="2.72"/><rect class="cls-4" x="66.4" y="246.17" width="14.68" height="2.72"/><rect class="cls-6" x="83.91" y="246.17" width="22.07" height="2.72"/><rect class="cls-5" x="47.07" y="240.28" width="15.53" height="2.72"/><rect class="cls-6" x="76.6" y="211.4" width="13.03" height="2.72"/><rect class="cls-6" x="93.04" y="211.4" width="21.52" height="2.72"/><rect class="cls-5" x="47.07" y="204.56" width="15.53" height="2.72"/><rect class="cls-6" x="66.4" y="204.56" width="14.68" height="2.72"/><rect class="cls-4" x="83.91" y="204.56" width="22.07" height="2.72"/><rect class="cls-5" x="47.07" y="211.4" width="26.66" height="2.72"/><rect class="cls-6" x="86.43" y="195.58" width="13.03" height="2.72"/><rect class="cls-4" x="56.91" y="195.58" width="26.66" height="2.72"/><path class="cls-4" d="M56.79,176.18a1.92,1.92,0,1,1-1.92-1.92A1.92,1.92,0,0,1,56.79,176.18Z" transform="translate(-13.58 -37.95)"/><path class="cls-4" d="M64.36,176.18a1.92,1.92,0,1,1-1.92-1.92A1.92,1.92,0,0,1,64.36,176.18Z" transform="translate(-13.58 -37.95)"/><path class="cls-4" d="M71.92,176.18A1.92,1.92,0,1,1,70,174.26,1.92,1.92,0,0,1,71.92,176.18Z" transform="translate(-13.58 -37.95)"/><rect class="cls-2" x="340.31" y="106.28" width="100.53" height="107.05"/><rect class="cls-3" x="340.31" y="106.28" width="100.53" height="11.83"/><rect class="cls-4" x="347.19" y="126.46" width="41.18" height="2.72"/><rect class="cls-5" x="347.19" y="132.51" width="15.53" height="2.72"/><rect class="cls-6" x="366.52" y="132.51" width="24.36" height="2.72"/><rect class="cls-6" x="376.71" y="138.57" width="23.06" height="2.72"/><rect class="cls-4" x="394.79" y="132.51" width="11.31" height="2.72"/><rect class="cls-6" x="409.78" y="132.51" width="15.53" height="2.72"/><rect class="cls-5" x="347.19" y="138.57" width="26.66" height="2.72"/><rect class="cls-5" x="347.19" y="194.44" width="15.53" height="2.72"/><rect class="cls-6" x="366.52" y="194.44" width="24.36" height="2.72"/><rect class="cls-6" x="376.71" y="200.49" width="9.86" height="2.72"/><rect class="cls-6" x="394.79" y="194.44" width="11.31" height="2.72"/><rect class="cls-4" x="347.19" y="200.49" width="26.66" height="2.72"/><rect class="cls-5" x="355.38" y="148.83" width="15.53" height="2.72"/><rect class="cls-4" x="374.71" y="148.83" width="14.68" height="2.72"/><rect class="cls-6" x="384.9" y="154.89" width="13.03" height="2.72"/><rect class="cls-4" x="401.35" y="154.89" width="21.52" height="2.72"/><rect class="cls-6" x="392.22" y="148.83" width="22.07" height="2.72"/><rect class="cls-5" x="355.38" y="160.78" width="15.53" height="2.72"/><rect class="cls-6" x="374.71" y="160.78" width="14.68" height="2.72"/><rect class="cls-6" x="392.22" y="160.78" width="22.07" height="2.72"/><rect class="cls-6" x="417.97" y="148.83" width="15.53" height="2.72"/><rect class="cls-5" x="355.38" y="154.89" width="26.66" height="2.72"/><rect class="cls-6" x="384.9" y="185.46" width="13.03" height="2.72"/><rect class="cls-6" x="401.35" y="185.46" width="21.52" height="2.72"/><rect class="cls-5" x="355.38" y="178.62" width="15.53" height="2.72"/><rect class="cls-6" x="374.71" y="178.62" width="14.68" height="2.72"/><rect class="cls-4" x="392.22" y="178.62" width="22.07" height="2.72"/><rect class="cls-5" x="355.38" y="185.46" width="26.66" height="2.72"/><rect class="cls-6" x="394.73" y="169.63" width="13.03" height="2.72"/><rect class="cls-4" x="365.21" y="169.63" width="26.66" height="2.72"/><path class="cls-4" d="M365.09,150.23a1.92,1.92,0,1,1-1.92-1.92A1.92,1.92,0,0,1,365.09,150.23Z" transform="translate(-13.58 -37.95)"/><path class="cls-4" d="M372.66,150.23a1.92,1.92,0,1,1-1.92-1.92A1.92,1.92,0,0,1,372.66,150.23Z" transform="translate(-13.58 -37.95)"/><path class="cls-4" d="M380.23,150.23a1.92,1.92,0,1,1-1.92-1.92A1.92,1.92,0,0,1,380.23,150.23Z" transform="translate(-13.58 -37.95)"/><rect class="cls-3" x="177.84" y="92.22" width="77.37" height="11.83"/><path class="cls-4" d="M200.61,136.18a1.92,1.92,0,1,1-1.92-1.92A1.92,1.92,0,0,1,200.61,136.18Z" transform="translate(-13.58 -37.95)"/><path class="cls-4" d="M208.18,136.18a1.92,1.92,0,1,1-1.92-1.92A1.92,1.92,0,0,1,208.18,136.18Z" transform="translate(-13.58 -37.95)"/><path class="cls-4" d="M215.75,136.18a1.92,1.92,0,1,1-1.92-1.92A1.92,1.92,0,0,1,215.75,136.18Z" transform="translate(-13.58 -37.95)"/><rect class="cls-2" x="177.84" y="104.05" width="77.37" height="32.14"/><rect class="cls-4" x="183.19" y="112.79" width="18.61" height="2.72"/><rect class="cls-5" x="206.35" y="112.79" width="20.98" height="2.72"/><rect class="cls-6" x="206.35" y="118.84" width="29.85" height="2.72"/><rect class="cls-6" x="231.89" y="112.79" width="10.74" height="2.72"/><rect class="cls-5" x="183.19" y="124.74" width="18.61" height="2.72"/><rect class="cls-4" x="206.35" y="124.74" width="17.59" height="2.72"/><rect class="cls-6" x="227.34" y="124.74" width="21.93" height="2.72"/><rect class="cls-5" x="183.19" y="118.84" width="18.61" height="2.72"/><path class="cls-7" d="M426.31,290.1v-8h-5.16a15.27,15.27,0,0,0-1.41-3.38L423.4,275l-5.68-5.68L414.06,273a15.32,15.32,0,0,0-3.39-1.4v-5.18h-8v5.18a15.44,15.44,0,0,0-3.38,1.4l-3.66-3.66L389.92,275l3.66,3.66a14.81,14.81,0,0,0-1.41,3.38H387v8h5.16a14.52,14.52,0,0,0,1.41,3.4l-3.65,3.65,5.68,5.67,3.64-3.64a14.55,14.55,0,0,0,3.4,1.42v5.14h8V300.6a14.62,14.62,0,0,0,3.41-1.42l3.64,3.64,5.68-5.67-3.65-3.65a15.43,15.43,0,0,0,1.41-3.4Zm-19.65,3.25a7.25,7.25,0,1,1,7.24-7.24A7.24,7.24,0,0,1,406.66,293.35Z" transform="translate(-13.58 -37.95)"/><path class="cls-7" d="M431.34,327.48v-4.72h-3a9,9,0,0,0-.83-2l2.15-2.15-3.34-3.34-2.15,2.15a8.69,8.69,0,0,0-2-.82v-3.05h-4.72v3.05a8.69,8.69,0,0,0-2,.82l-2.15-2.15L410,318.62l2.15,2.15a9,9,0,0,0-.83,2h-3v4.72h3a8.69,8.69,0,0,0,.82,2L410,331.62l3.34,3.33,2.14-2.14a8.2,8.2,0,0,0,2,.83v3h4.72v-3a8.2,8.2,0,0,0,2-.83l2.14,2.14,3.34-3.33-2.15-2.15a8.29,8.29,0,0,0,.83-2ZM419.79,329a3.91,3.91,0,1,1,3.9-3.91A3.9,3.9,0,0,1,419.79,329Z" transform="translate(-13.58 -37.95)"/><path class="cls-8" d="M410.21,313.66V303h-6.89a19.45,19.45,0,0,0-1.88-4.51l4.88-4.88L398.75,286l-4.88,4.88a19.87,19.87,0,0,0-4.51-1.87v-6.9h-10.7V289a19.87,19.87,0,0,0-4.51,1.87L369.27,286l-7.56,7.56,4.87,4.88A20.36,20.36,0,0,0,364.7,303h-6.88v10.7h6.87a20.09,20.09,0,0,0,1.87,4.54l-4.85,4.85,7.56,7.57,4.85-4.85a20.12,20.12,0,0,0,4.54,1.88v6.86h10.7v-6.86a19.75,19.75,0,0,0,4.54-1.88l4.85,4.85,7.57-7.57-4.86-4.85a20.09,20.09,0,0,0,1.87-4.54Zm-26.2,6a11.28,11.28,0,1,1,11.28-11.28A11.28,11.28,0,0,1,384,319.62Z" transform="translate(-13.58 -37.95)"/><path class="cls-7" d="M302,212v-8H296.8a15.35,15.35,0,0,0-1.41-3.39l3.66-3.66-5.68-5.68-3.66,3.67a14.86,14.86,0,0,0-3.39-1.4v-5.18h-8v5.18a15,15,0,0,0-3.38,1.4l-3.66-3.67-5.68,5.68,3.66,3.66a14.88,14.88,0,0,0-1.41,3.39h-5.17v8h5.16a14.52,14.52,0,0,0,1.41,3.4L265.57,219l5.68,5.68,3.64-3.64a15,15,0,0,0,3.4,1.41v5.15h8v-5.15a15,15,0,0,0,3.41-1.41l3.64,3.64,5.68-5.68-3.65-3.64a15.43,15.43,0,0,0,1.41-3.4Zm-19.65,3.24a7.24,7.24,0,1,1,7.24-7.24A7.24,7.24,0,0,1,282.31,215.2Z" transform="translate(-13.58 -37.95)"/><path class="cls-7" d="M307,249.33v-4.72h-3a9.19,9.19,0,0,0-.83-2l2.15-2.15-3.34-3.34-2.15,2.16a8.72,8.72,0,0,0-2-.83v-3h-4.72v3a8.72,8.72,0,0,0-2,.83l-2.15-2.16-3.34,3.34,2.15,2.15a9.19,9.19,0,0,0-.83,2h-3v4.72h3a8.58,8.58,0,0,0,.82,2l-2.14,2.14,3.34,3.34,2.14-2.14a9.06,9.06,0,0,0,2,.83v3h4.72v-3a9.06,9.06,0,0,0,2-.83l2.14,2.14,3.34-3.34-2.15-2.14a8.2,8.2,0,0,0,.83-2Zm-11.55,1.56a3.91,3.91,0,1,1,3.9-3.91A3.9,3.9,0,0,1,295.44,250.89Z" transform="translate(-13.58 -37.95)"/><path class="cls-8" d="M285.86,235.52v-10.7H279a19.52,19.52,0,0,0-1.88-4.52l4.88-4.87-7.57-7.57-4.88,4.88a20.3,20.3,0,0,0-4.51-1.86V204h-10.7v6.91a20.3,20.3,0,0,0-4.51,1.86l-4.88-4.88-7.56,7.57,4.87,4.87a20.44,20.44,0,0,0-1.88,4.52h-6.88v10.7h6.87a19.83,19.83,0,0,0,1.87,4.53l-4.85,4.86,7.56,7.57,4.85-4.86a19.7,19.7,0,0,0,4.54,1.89v6.86H265v-6.86a19.34,19.34,0,0,0,4.54-1.89l4.85,4.86,7.57-7.57-4.86-4.86a20.32,20.32,0,0,0,1.88-4.53Zm-26.2,6a11.29,11.29,0,1,1,11.28-11.29A11.29,11.29,0,0,1,259.66,241.48Z" transform="translate(-13.58 -37.95)"/><path class="cls-7" d="M135.85,365.13v-8h-5.16a14.84,14.84,0,0,0-1.42-3.38l3.67-3.66-5.68-5.68L123.6,348a15.32,15.32,0,0,0-3.39-1.4v-5.18h-8v5.18a15.24,15.24,0,0,0-3.38,1.4l-3.66-3.66-5.68,5.68,3.66,3.66a14.81,14.81,0,0,0-1.41,3.38H96.54v8h5.16a14.52,14.52,0,0,0,1.41,3.4l-3.65,3.65,5.68,5.68,3.64-3.65a14.55,14.55,0,0,0,3.4,1.42v5.14h8v-5.14a14.62,14.62,0,0,0,3.41-1.42l3.64,3.65,5.68-5.68-3.65-3.65a14.93,14.93,0,0,0,1.4-3.4Zm-19.65,3.25a7.25,7.25,0,1,1,7.24-7.24A7.25,7.25,0,0,1,116.2,368.38Z" transform="translate(-13.58 -37.95)"/><path class="cls-7" d="M140.88,402.51v-4.72h-3a9,9,0,0,0-.83-2l2.15-2.15-3.34-3.34-2.15,2.15a8.69,8.69,0,0,0-2-.82v-3.05H127v3.05a8.69,8.69,0,0,0-2,.82l-2.15-2.15-3.34,3.34,2.15,2.15a9,9,0,0,0-.83,2h-3v4.72h3a9,9,0,0,0,.82,2l-2.14,2.14,3.34,3.33,2.14-2.13a9.06,9.06,0,0,0,2,.83v3h4.72v-3a9.06,9.06,0,0,0,2-.83l2.14,2.13,3.34-3.33L137,404.51a8.54,8.54,0,0,0,.83-2Zm-11.55,1.55a3.91,3.91,0,1,1,3.9-3.9A3.9,3.9,0,0,1,129.33,404.06Z" transform="translate(-13.58 -37.95)"/><path class="cls-8" d="M119.75,388.7V378h-6.89a19.78,19.78,0,0,0-1.88-4.52l4.88-4.88L108.29,361l-4.88,4.88a19.87,19.87,0,0,0-4.51-1.87v-6.9H88.2v6.9a19.87,19.87,0,0,0-4.51,1.87L78.81,361l-7.56,7.56,4.87,4.88A20.24,20.24,0,0,0,74.24,378H67.35v10.7h6.88a20.21,20.21,0,0,0,1.87,4.53l-4.85,4.86,7.56,7.56,4.85-4.85a20.12,20.12,0,0,0,4.54,1.88v6.86H98.9v-6.86a19.75,19.75,0,0,0,4.54-1.88l4.85,4.85,7.57-7.56L111,393.23a20.21,20.21,0,0,0,1.87-4.53Zm-26.2,5.95a11.28,11.28,0,1,1,11.28-11.28A11.28,11.28,0,0,1,93.55,394.65Z" transform="translate(-13.58 -37.95)"/><path class="cls-9" d="M13.58,380.32l74.79-.87-14.3-27.12,7.52-.23-15-26.41,4.37-.23L51,289.54,31.47,325.23h5.2L21.85,351.88l6.9.22s-15.27,28.45-15.17,28.22Z" transform="translate(-13.58 -37.95)"/><path class="cls-10" d="M62,367l3.57-.11-7.14-12.55,2.08-.11L51,337.21l-9.28,17h2.47l-7,12.65,3.28.11s-6.13,11.42-7.08,13.17l35.28-.41Z" transform="translate(-13.58 -37.95)"/><path class="cls-11" d="M50.24,318.38l-.11,10-5.58-6.26-1,1L50,330.28l.14-.11L50,342.4l-7.39-7.58-1,1L50,344.41l-.14,13.1L39.14,347.7l-1,1.05L49.79,359.4l-.14,14.24-11.7-11-1,1,12.63,11.9-.36,35.83h6s-.82-17-1.81-36.43l12-11.3-.95-1L53.32,373.1c-.26-4.68-.51-9.5-.73-14.21l11-10.14-.93-1.05-10.24,9.36c-.22-4.45-.45-8.79-.68-12.91l8.15-8.37-1-1-7.22,7.44c-.25-4.45-.48-8.51-.68-12l6.46-7.16-1.07-1-5.5,6.15c-.34-5.84-.59-9.59-.68-9.9Z" transform="translate(-13.58 -37.95)"/><path class="cls-12" d="M61.37,413.54c-1.63-4.16-5.3-7.07-9.57-7.07s-7.95,2.91-9.57,7.07Z" transform="translate(-13.58 -37.95)"/><path class="cls-9" d="M411.63,380.32l74.79-.87-14.3-27.12,7.51-.23-15-26.41,4.38-.23-19.92-35.92-19.55,35.69h5.21L419.9,351.88l6.89.22s-15.27,28.45-15.16,28.22Z" transform="translate(-13.58 -37.95)"/><path class="cls-10" d="M460,367l3.57-.11-7.14-12.55,2.08-.11L449,337.21l-9.28,17h2.47l-7,12.65,3.27.11-7.07,13.17,35.28-.41Z" transform="translate(-13.58 -37.95)"/><path class="cls-11" d="M448.29,318.38l-.11,10-5.58-6.26-1.05,1,6.46,7.19.14-.11L448,342.4l-7.39-7.58-1,1,8.37,8.63-.14,13.1-10.69-9.81-1,1.05,11.62,10.65-.14,14.24-11.7-11-1,1,12.63,11.9-.37,35.83h5.95s-.81-17-1.8-36.43l12-11.3-1-1L451.36,373.1c-.25-4.68-.5-9.5-.73-14.21l11.05-10.14-.93-1.05-10.23,9.36c-.23-4.45-.45-8.79-.68-12.91l8.15-8.37-1-1-7.21,7.44c-.26-4.45-.48-8.51-.68-12l6.46-7.16-1.07-1-5.5,6.15c-.34-5.84-.59-9.59-.68-9.9Z" transform="translate(-13.58 -37.95)"/><path class="cls-12" d="M459.42,413.54c-1.63-4.16-5.3-7.07-9.58-7.07s-7.94,2.91-9.57,7.07Z" transform="translate(-13.58 -37.95)"/><path class="cls-9" d="M393.83,388.29l56.85-.66L439.81,367l5.71-.18-11.43-20.07,3.33-.17-15.14-27.3-14.85,27.12h3.95l-11.26,20.25,5.24.17s-11.61,21.62-11.53,21.45Z" transform="translate(-13.58 -37.95)"/><path class="cls-10" d="M430.59,378.19l2.71-.08-5.42-9.54,1.58-.08-7.19-13-7.06,12.89h1.88L411.74,378l2.49.09-5.38,10,26.81-.32Z" transform="translate(-13.58 -37.95)"/><path class="cls-11" d="M421.7,341.22l-.09,7.6-4.24-4.75-.79.73,4.9,5.46.11-.09-.09,9.3-5.61-5.76-.77.73,6.36,6.56-.1,10-8.13-7.46-.72.79,8.82,8.1-.1,10.82-8.9-8.35-.73.77,9.61,9L421,411.91h4.52s-.62-12.93-1.37-27.69l9.1-8.59-.73-.77L424,382.81c-.19-3.56-.38-7.22-.56-10.8l8.4-7.72-.7-.79-7.78,7.12c-.17-3.39-.35-6.69-.52-9.82l6.2-6.36-.77-.73-5.49,5.66c-.19-3.39-.36-6.47-.51-9.13l4.9-5.44-.81-.73-4.18,4.67c-.26-4.44-.45-7.29-.51-7.52Z" transform="translate(-13.58 -37.95)"/><path class="cls-12" d="M430.15,413.54a7.61,7.61,0,0,0-14.55,0Z" transform="translate(-13.58 -37.95)"/><path class="cls-13" d="M399.61,441.34a6.59,6.59,0,0,1-6.59,6.59H103.41a6.6,6.6,0,0,1-6.59-6.59h0a6.6,6.6,0,0,1,6.59-6.59H393a6.59,6.59,0,0,1,6.59,6.59Z" transform="translate(-13.58 -37.95)"/><rect class="cls-14" x="209.82" y="400.91" width="79.93" height="23.5" transform="translate(485.99 787.37) rotate(180)"/><rect class="cls-15" x="209.82" y="416.54" width="79.93" height="7.87" transform="translate(485.99 803.01) rotate(180)"/><path class="cls-14" d="M209.11,424.41h81.35a17.11,17.11,0,0,1,17.28,16.93H191.84A17.1,17.1,0,0,1,209.11,424.41Z" transform="translate(-13.58 -37.95)"/><rect class="cls-15" x="116.16" y="228.27" width="267.68" height="172.64" rx="4.71" transform="translate(486.42 591.23) rotate(180)"/><rect class="cls-8" x="118.94" y="230.6" width="262.11" height="167.98" rx="4.71" transform="translate(486.42 591.23) rotate(180)"/><rect class="cls-3" x="130.2" y="244.44" width="239.61" height="140.3" rx="4.11" transform="translate(486.42 591.22) rotate(180)"/><rect class="cls-4" x="129.87" y="219.65" width="88.63" height="3.71"/><rect class="cls-5" x="129.87" y="227.92" width="33.41" height="3.72"/><rect class="cls-6" x="171.46" y="227.92" width="52.41" height="3.72"/><rect class="cls-6" x="193.4" y="236.2" width="49.62" height="3.71"/><rect class="cls-6" x="232.3" y="227.92" width="24.35" height="3.72"/><rect class="cls-6" x="264.57" y="227.92" width="33.41" height="3.72"/><rect class="cls-5" x="129.87" y="236.2" width="57.36" height="3.71"/><rect class="cls-5" x="129.87" y="312.53" width="33.41" height="3.71"/><rect class="cls-6" x="171.46" y="312.53" width="52.41" height="3.71"/><rect class="cls-4" x="193.4" y="320.8" width="21.23" height="3.71"/><rect class="cls-6" x="232.3" y="312.53" width="24.35" height="3.71"/><rect class="cls-4" x="129.87" y="320.8" width="57.36" height="3.71"/><rect class="cls-6" x="147.49" y="250.22" width="33.42" height="3.71"/><rect class="cls-4" x="189.09" y="250.22" width="31.59" height="3.71"/><rect class="cls-6" x="211.03" y="258.49" width="28.04" height="3.72"/><rect class="cls-6" x="246.41" y="258.49" width="46.32" height="3.72"/><rect class="cls-4" x="226.77" y="250.22" width="47.5" height="3.71"/><rect class="cls-5" x="147.49" y="266.54" width="33.42" height="3.71"/><rect class="cls-6" x="189.09" y="266.54" width="31.59" height="3.71"/><rect class="cls-6" x="226.77" y="266.54" width="47.5" height="3.71"/><rect class="cls-6" x="282.19" y="250.22" width="33.41" height="3.71"/><rect class="cls-5" x="147.49" y="258.49" width="57.37" height="3.72"/><rect class="cls-5" x="147.49" y="331.44" width="33.42" height="3.71"/><rect class="cls-6" x="189.09" y="331.44" width="37.68" height="3.71"/><rect class="cls-4" x="234.94" y="331.44" width="62.43" height="3.71"/><rect class="cls-6" x="211.03" y="300.26" width="28.04" height="3.71"/><rect class="cls-6" x="246.41" y="300.26" width="46.32" height="3.71"/><rect class="cls-5" x="147.49" y="290.91" width="33.42" height="3.71"/><rect class="cls-6" x="189.09" y="290.91" width="31.59" height="3.71"/><rect class="cls-4" x="226.77" y="290.91" width="47.5" height="3.71"/><rect class="cls-4" x="147.49" y="300.26" width="57.37" height="3.71"/><rect class="cls-6" x="232.18" y="278.64" width="28.04" height="3.72"/><rect class="cls-4" x="168.65" y="278.64" width="57.36" height="3.72"/><path class="cls-14" d="M208.71,231.82a11.53,11.53,0,0,0,.13-1.77,11.84,11.84,0,0,0-17.12-10.6,15.7,15.7,0,0,0-29.81,6.86c0,.24,0,.48,0,.73-.27,0-.53,0-.8,0a11.78,11.78,0,0,0-.19,23.56h47.44a9.38,9.38,0,0,0,.33-18.76Z" transform="translate(-13.58 -37.95)"/><path class="cls-16" d="M200.08,238.25a7.24,7.24,0,0,0,.09-1.15,7.77,7.77,0,0,0-11.25-7,10.32,10.32,0,0,0-19.59,4.5c0,.16,0,.32,0,.48l-.52,0a7.74,7.74,0,0,0-.13,15.48h31.17a6.17,6.17,0,0,0,.22-12.33Z" transform="translate(-13.58 -37.95)"/><path class="cls-17" d="M169.29,239.19l9.45-4.87v1.4l-8,4v0l8,4v1.41l-9.45-4.87Z" transform="translate(-13.58 -37.95)"/><path class="cls-17" d="M185.67,246l-5.55-14.77h1.39L187.05,246Z" transform="translate(-13.58 -37.95)"/><path class="cls-17" d="M197.82,240.31l-9.45,4.85v-1.41l8-4v0l-8-4v-1.4l9.45,4.85Z" transform="translate(-13.58 -37.95)"/><path class="cls-14" d="M272.15,372.47a11.49,11.49,0,0,0,.13-1.76,11.85,11.85,0,0,0-17.13-10.61,15.69,15.69,0,0,0-29.8,6.86c0,.24,0,.49,0,.73-.26,0-.52,0-.79,0a11.78,11.78,0,0,0-.2,23.56h47.45a9.38,9.38,0,0,0,.33-18.76Z" transform="translate(-13.58 -37.95)"/><path class="cls-16" d="M263.52,378.9a7.24,7.24,0,0,0,.09-1.15,7.78,7.78,0,0,0-11.26-7,10.31,10.31,0,0,0-19.58,4.5c0,.16,0,.32,0,.48l-.52,0a7.74,7.74,0,0,0-.13,15.48H263.3a6.17,6.17,0,0,0,.22-12.33Z" transform="translate(-13.58 -37.95)"/><path class="cls-17" d="M228.17,387.13V376.34h1.52l3.46,5.46a30.16,30.16,0,0,1,1.93,3.51l0,0c-.13-1.44-.16-2.75-.16-4.43v-4.52h1.31v10.79h-1.41l-3.42-5.47a32.07,32.07,0,0,1-2-3.6h0c.08,1.36.11,2.66.11,4.45v4.61Z" transform="translate(-13.58 -37.95)"/><path class="cls-17" d="M247.92,381.63c0,3.71-2.26,5.68-5,5.68s-4.85-2.21-4.85-5.48,2.13-5.66,5-5.66S247.92,378.43,247.92,381.63Zm-8.37.17c0,2.31,1.24,4.37,3.44,4.37s3.46-2,3.46-4.48c0-2.14-1.13-4.38-3.45-4.38S239.55,379.43,239.55,381.8Z" transform="translate(-13.58 -37.95)"/><path class="cls-17" d="M249.72,376.49a19.77,19.77,0,0,1,3-.22,6.17,6.17,0,0,1,4.37,1.34,5,5,0,0,1,1.52,3.87,5.73,5.73,0,0,1-1.55,4.2,6.64,6.64,0,0,1-4.77,1.55,22.56,22.56,0,0,1-2.53-.13Zm1.39,9.54a9.41,9.41,0,0,0,1.41.08c3,0,4.6-1.67,4.6-4.58,0-2.54-1.43-4.16-4.37-4.16a8.07,8.07,0,0,0-1.64.14Z" transform="translate(-13.58 -37.95)"/><path class="cls-17" d="M266,382.08h-4.19V386h4.67v1.17h-6.06V376.34h5.82v1.17h-4.43v3.41H266Z" transform="translate(-13.58 -37.95)"/><path class="cls-14" d="M387.27,337.79a12.91,12.91,0,0,0,.13-1.76,11.85,11.85,0,0,0-17.13-10.61,15.7,15.7,0,0,0-29.81,6.86c0,.24,0,.49,0,.73-.26,0-.53,0-.8,0a11.78,11.78,0,0,0-.19,23.56h47.44a9.38,9.38,0,0,0,.34-18.76Z" transform="translate(-13.58 -37.95)"/><path class="cls-16" d="M378.63,344.22a7.24,7.24,0,0,0,.09-1.15,7.77,7.77,0,0,0-11.25-7,10.32,10.32,0,0,0-19.59,4.5c0,.16,0,.32,0,.48l-.52,0a7.74,7.74,0,0,0-.13,15.48h31.17a6.17,6.17,0,0,0,.21-12.33Z" transform="translate(-13.58 -37.95)"/><path class="cls-17" d="M346.75,343v4.51H352V343h1.41V353.8H352v-5.06h-5.22v5.06h-1.39V343Z" transform="translate(-13.58 -37.95)"/><path class="cls-17" d="M357.84,344.19h-3.29V343h8v1.18h-3.3v9.61h-1.4Z" transform="translate(-13.58 -37.95)"/><path class="cls-17" d="M372.83,349.06c-.08-1.51-.17-3.31-.16-4.66h-.05c-.37,1.27-.81,2.61-1.36,4.1l-1.9,5.23H368.3l-1.74-5.14c-.52-1.52-.95-2.91-1.25-4.19h0c0,1.35-.12,3.15-.21,4.77l-.29,4.63h-1.33L364.2,343H366l1.84,5.22c.45,1.32.82,2.51,1.09,3.63h0c.27-1.09.65-2.27,1.13-3.63L372,343h1.78l.67,10.79H373.1Z" transform="translate(-13.58 -37.95)"/><path class="cls-17" d="M376.6,343H378v9.62h4.61v1.17h-6Z" transform="translate(-13.58 -37.95)"/><path class="cls-14" d="M159.48,317.13a11.4,11.4,0,0,0,.14-1.76,11.85,11.85,0,0,0-11.85-11.85,11.7,11.7,0,0,0-5.28,1.25,15.69,15.69,0,0,0-29.81,6.85c0,.25,0,.49,0,.73-.26,0-.53,0-.8,0a11.78,11.78,0,0,0-.19,23.56h47.44a9.38,9.38,0,0,0,.33-18.76Z" transform="translate(-13.58 -37.95)"/><path class="cls-16" d="M150.85,323.56a7.24,7.24,0,0,0,.09-1.15,7.77,7.77,0,0,0-11.25-7A10.32,10.32,0,0,0,120.1,320c0,.16,0,.32,0,.47l-.52,0a7.75,7.75,0,0,0-.13,15.49h31.16a6.17,6.17,0,0,0,.22-12.33Z" transform="translate(-13.58 -37.95)"/><path class="cls-17" d="M122.42,319.93h1.39v7.22c0,2.87-1.41,3.75-3.27,3.75a4.56,4.56,0,0,1-1.48-.26l.2-1.14a3.18,3.18,0,0,0,1.17.21c1.25,0,2-.56,2-2.67Z" transform="translate(-13.58 -37.95)"/><path class="cls-17" d="M127.87,327.33l-1.12,3.39h-1.44L129,319.93h1.68l3.68,10.79h-1.49l-1.15-3.39Zm3.54-1.09-1.06-3.11c-.24-.7-.4-1.34-.56-2h0c-.16.64-.34,1.3-.54,2l-1.06,3.12Z" transform="translate(-13.58 -37.95)"/><path class="cls-17" d="M137.44,330.72l-3.52-10.79h1.5l1.68,5.32c.47,1.45.87,2.76,1.16,4h0c.3-1.25.75-2.61,1.23-4l1.83-5.33h1.48L139,330.72Z" transform="translate(-13.58 -37.95)"/><path class="cls-17" d="M144.83,327.33l-1.12,3.39h-1.44l3.67-10.79h1.68l3.68,10.79h-1.49l-1.15-3.39Zm3.54-1.09-1.06-3.11c-.24-.7-.4-1.34-.56-2h0c-.16.64-.34,1.3-.54,2l-1.06,3.12Z" transform="translate(-13.58 -37.95)"/><path class="cls-14" d="M354.49,260.68a12.94,12.94,0,0,0,.13-1.77,11.85,11.85,0,0,0-17.13-10.6,15.7,15.7,0,0,0-29.81,6.86c0,.24,0,.48,0,.73-.26,0-.53,0-.79,0a11.78,11.78,0,0,0-.2,23.56h47.44a9.38,9.38,0,0,0,.34-18.76Z" transform="translate(-13.58 -37.95)"/><path class="cls-16" d="M345.86,267.11a8.8,8.8,0,0,0,.08-1.16,7.77,7.77,0,0,0-11.25-7,10.31,10.31,0,0,0-19.58,4.5c0,.16,0,.32,0,.48l-.52,0a7.74,7.74,0,0,0-.13,15.48h31.17a6.17,6.17,0,0,0,.22-12.33Z" transform="translate(-13.58 -37.95)"/><path class="cls-17" d="M317.38,265.85a16.51,16.51,0,0,1,2.68-.21,4.41,4.41,0,0,1,3,.9,2.92,2.92,0,0,1,.95,2.26,3.19,3.19,0,0,1-.83,2.3,4.46,4.46,0,0,1-3.3,1.19,4.76,4.76,0,0,1-1.12-.1v4.32h-1.4Zm1.4,5.2a4.55,4.55,0,0,0,1.15.12c1.68,0,2.7-.82,2.7-2.31s-1-2.11-2.54-2.11a6.09,6.09,0,0,0-1.31.11Z" transform="translate(-13.58 -37.95)"/><path class="cls-17" d="M327.29,265.72v4.52h5.22v-4.52h1.41v10.79h-1.41v-5.06h-5.22v5.06H325.9V265.72Z" transform="translate(-13.58 -37.95)"/><path class="cls-17" d="M336.33,265.85a16.27,16.27,0,0,1,2.67-.21,4.42,4.42,0,0,1,3,.9,2.91,2.91,0,0,1,.94,2.26,3.19,3.19,0,0,1-.83,2.3,4.46,4.46,0,0,1-3.3,1.19,4.81,4.81,0,0,1-1.12-.1v4.32h-1.39Zm1.39,5.2a4.66,4.66,0,0,0,1.15.12c1.68,0,2.71-.82,2.71-2.31s-1-2.11-2.55-2.11a6.16,6.16,0,0,0-1.31.11Z" transform="translate(-13.58 -37.95)"/></svg>